# generated from PmQm by Jehee Lee
:FULLY-SPECIFIED
:DEGREES
482
root -32.8988 38.555 8.10302 -149.889 75.737 -151.348
RightUpLeg -11.7715 1.74953 5.21471
RightLeg 9.50987 2.77409 0.500356
RightFoot -3.77395 -0.465472 6.63995
RightToes -0.000541893 -0.000659172 -0.000493268
Spine 1.22533 -0.194245 6.58231
Spine1 2.21547 -0.143581 8.88982
HEad 22.6483 7.72368 -12.2624
LeftShoulder1 -3.88251e-019 -0 -3.92111e-022
LeftArm -35.5718 8.40541 -85.9776
LeftForeArm 34.9885 2.07562 -0.325804
LeftHand -0.705381 -4.66206 8.42995
RightShoulder 7.45443e-017 -2.42657e-020 1.96277e-018
RightArm -25.9076 -9.08372 68.0241
RightForeArm 27.9499 3.1234 4.83893
RightHand -1.46839 10.5109 -11.0655
LeftUpLeg -11.0753 -2.46918 5.83415
LeftLeg 45.8716 0.920931 1.44649
LeftFoot -5.2377 -0.124172 2.94165
LeftToes 3.91355e-005 3.11907e-005 -4.10385e-006
483
root -32.3656 38.5868 8.23299 -155.846 73.1409 -156.74
RightUpLeg -10.2775 1.55503 5.35195
RightLeg 9.86162 -0.0116455 -0.139372
RightFoot -4.83194 -0.368009 5.88115
RightToes -0.000541893 -0.000659172 -0.000493268
Spine 1.42677 -0.183642 6.59105
Spine1 2.6403 -0.105825 8.70679
HEad 22.8111 7.61291 -12.2247
LeftShoulder1 -3.88251e-019 -0 -3.92111e-022
LeftArm -35.0687 7.70707 -86.1756
LeftForeArm 35.1972 2.07704 -1.00108
LeftHand -0.738739 -4.88616 8.63531
RightShoulder 7.45443e-017 -2.42657e-020 1.96277e-018
RightArm -25.7482 -7.57336 67.3151
RightForeArm 30.6291 1.96888 4.32015
RightHand -1.47651 10.2996 -11.2649
LeftUpLeg -14.0176 1.41313 5.17674
LeftLeg 50.8902 4.29494 6.1208
LeftFoot -1.63179 -0.171821 2.12357
LeftToes 3.91355e-005 3.11907e-005 -4.10385e-006
484
root -31.8268 38.5949 8.28579 -160.87 70.4966 -161.517
RightUpLeg -9.32936 1.32087 5.20497
RightLeg 10.8063 -2.58052 -0.917742
RightFoot -6.09797 -0.295465 5.54085
RightToes -0.000541893 -0.000659172 -0.000493268
Spine 1.49201 -0.102187 6.48866
Spine1 2.81257 0.0294378 8.41376
HEad 23.2828 7.46959 -12.3262
LeftShoulder1 -3.88251e-019 -0 -3.92111e-022
LeftArm -34.7285 6.90702 -86.4833
LeftForeArm 36.0578 1.1031 -1.56517
LeftHand -0.71094 -4.97064 8.25836
RightShoulder 7.45443e-017 -2.42657e-020 1.96277e-018
RightArm -25.5754 -6.86824 66.5537
RightForeArm 31.5166 1.59928 4.10732
RightHand -1.49475 10.1742 -11.4854
LeftUpLeg -16.78 4.1054 4.18109
LeftLeg 53.6106 5.83982 8.91587
LeftFoot -2.56919 -0.144639 2.08694
LeftToes 3.91355e-005 3.11907e-005 -4.10385e-006
485
root -31.2738 38.6 8.28024 -164.825 67.7693 -165.343
RightUpLeg -8.43788 1.06759 4.91447
RightLeg 11.784 -5.12594 -1.68128
RightFoot -7.26289 -0.244928 5.48616
RightToes -0.000541893 -0.000659172 -0.000493268
Spine 1.5348 0.0405897 6.24966
Spine1 2.95946 0.242242 7.9614
HEad 23.5832 7.29928 -12.45
LeftShoulder1 -3.88251e-019 -0 -3.92111e-022
LeftArm -34.3293 6.03009 -86.6051
LeftForeArm 36.3991 0.378674 -1.9867
LeftHand -0.677313 -5.1809 7.73822
RightShoulder 7.45443e-017 -2.42657e-020 1.96277e-018
RightArm -25.4503 -6.99515 66.0568
RightForeArm 29.8489 2.10108 4.34601
RightHand -1.58269 10.0904 -12.1948
LeftUpLeg -19.1356 5.42919 3.32061
LeftLeg 53.1376 4.92846 7.49397
LeftFoot -5.28234 -0.0876232 2.2571
LeftToes 3.91355e-005 3.11907e-005 -4.10385e-006
486
root -30.7207 38.5944 8.20867 -167.832 64.7426 -168.214
RightUpLeg -7.38789 0.798457 4.62869
RightLeg 12.572 -8.07984 -2.44793
RightFoot -8.43768 -0.193453 5.3649
RightToes -0.000541893 -0.000659172 -0.000493268
Spine 1.55402 0.151309 5.91195
Spine1 3.07156 0.350621 7.54925
HEad 23.743 7.02272 -12.5822
LeftShoulder1 -3.88251e-019 -0 -3.92111e-022
LeftArm -33.9642 5.16375 -86.5747
LeftForeArm 36.4436 0.320736 -2.13687
LeftHand -0.682135 -5.42368 7.62848
RightShoulder 7.45443e-017 -2.42657e-020 1.96277e-018
RightArm -25.4186 -7.61239 65.7761
RightForeArm 27.8729 2.85408 4.85014
RightHand -1.62474 10.024 -12.5568
LeftUpLeg -21.0986 6.02462 2.97609
LeftLeg 50.0289 3.53128 4.95112
LeftFoot -6.18013 -0.0520775 1.98611
LeftToes 3.91355e-005 3.11907e-005 -4.10385e-006
487
root -30.1649 38.6064 8.05758 -170.468 61.7575 -170.862
RightUpLeg -6.16578 0.368206 4.07407
RightLeg 12.965 -10.8565 -3.07223
RightFoot -9.58407 -0.147548 5.37673
RightToes -0.000541893 -0.000659172 -0.000493268
Spine 1.51843 0.30714 5.42233
Spine1 3.07542 0.535646 7.09598
HEad 23.9418 6.55535 -12.7422
LeftShoulder1 -3.88251e-019 -0 -3.92111e-022
LeftArm -33.852 4.44264 -86.622
LeftForeArm 36.8566 0.737318 -1.97583
LeftHand -0.742858 -5.373 8.31506
RightShoulder 7.45443e-017 -2.42657e-020 1.96277e-018
RightArm -25.3629 -8.30646 65.4959
RightForeArm 27.6758 3.17945 5.26381
RightHand -1.57599 10.1478 -12.1032
LeftUpLeg -22.6673 6.41522 2.84204
LeftLeg 44.829 3.71308 4.33731
LeftFoot -5.72519 -0.074939 2.22983
LeftToes 3.91355e-005 3.11907e-005 -4.10385e-006
488
root -29.6015 38.6762 7.85187 -172.764 59.266 -173.378
RightUpLeg -4.68983 0.0221462 3.34346
RightLeg 12.5664 -13.2244 -3.57149
RightFoot -10.2729 -0.122092 5.5991
RightToes -0.000541893 -0.000659172 -0.000493268
Spine 1.48776 0.584682 4.72923
Spine1 3.07645 0.984764 6.46522
HEad 24.1276 6.01262 -12.8573
LeftShoulder1 -3.88251e-019 -0 -3.92111e-022
LeftArm -33.946 4.03221 -86.6499
LeftForeArm 37.1613 1.33074 -1.68863
LeftHand -0.811609 -5.14488 9.23626
RightShoulder 7.45443e-017 -2.42657e-020 1.96277e-018
RightArm -25.3336 -8.6652 65.4533
RightForeArm 28.9012 2.92021 5.11864
RightHand -1.5432 10.3803 -11.6953
LeftUpLeg -23.5256 6.55394 2.87362
LeftLeg 37.1748 5.09057 4.48953
LeftFoot -4.99519 -0.155023 3.34177
LeftToes 3.91355e-005 3.11907e-005 -4.10385e-006
489
root -29.0347 38.7244 7.56398 -174.021 57.0875 -174.825
RightUpLeg -3.06833 0.0889086 3.0603
RightLeg 11.8535 -15.7266 -4.14877
RightFoot -10.6751 -0.107478 6.00114
RightToes -0.000541893 -0.000659172 -0.000493268
Spine 1.47105 0.807638 4.02967
Spine1 3.06971 1.38246 6.03378
HEad 24.2741 5.67272 -12.8228
LeftShoulder1 -3.88251e-019 -0 -3.92111e-022
LeftArm -34.2198 4.25502 -86.4569
LeftForeArm 36.8105 1.88606 -1.38925
LeftHand -0.813386 -5.03896 9.34366
RightShoulder 7.45443e-017 -2.42657e-020 1.96277e-018
RightArm -25.4369 -8.5645 65.9461
RightForeArm 30.0336 2.32597 4.44095
RightHand -1.55079 10.4297 -11.7156
LeftUpLeg -23.4196 6.20473 3.53607
LeftLeg 27.2862 6.46879 3.94703
LeftFoot -2.70923 -0.293704 4.10876
LeftToes 3.91355e-005 3.11907e-005 -4.10385e-006
490
root -28.4678 38.748 7.15167 -174.575 55.0477 -175.552
RightUpLeg -1.19783 0.194734 2.96773
RightLeg 10.6606 -17.9815 -4.38335
RightFoot -10.9985 -0.094636 6.63748
RightToes -0.000541893 -0.000659172 -0.000493268
Spine 1.41649 0.878454 3.37295
Spine1 2.93915 1.55616 5.79534
HEad 24.4382 5.58026 -12.6771
LeftShoulder1 -3.88251e-019 -0 -3.92111e-022
LeftArm -34.7217 5.18069 -86.1445
LeftForeArm 36.0824 2.14265 -1.03345
LeftHand -0.75105 -5.00707 8.67776
RightShoulder 7.45443e-017 -2.42657e-020 1.96277e-018
RightArm -25.557 -8.43918 66.6588
RightForeArm 30.3313 1.94409 4.02377
RightHand -1.54058 10.228 -11.784
LeftUpLeg -22.4856 4.67858 4.73706
LeftLeg 15.9928 7.06588 2.54564
LeftFoot 2.22711 -0.550636 4.51286
LeftToes 3.91355e-005 3.11907e-005 -4.10385e-006
491
root -27.9065 38.7552 6.62331 -174.48 53.5024 -175.854
RightUpLeg 0.403413 0.143038 2.82193
RightLeg 9.43336 -19.4345 -4.17252
RightFoot -11.3293 -0.0776985 7.22075
RightToes -0.000541893 -0.000659172 -0.000493268
Spine 1.26114 0.986417 2.80316
Spine1 2.57406 1.87319 5.70783
HEad 24.6052 5.55094 -12.5692
LeftShoulder1 -3.88251e-019 -0 -3.92111e-022
LeftArm -35.3858 6.50809 -85.912
LeftForeArm 35.1403 2.07812 -0.543784
LeftHand -0.684485 -4.89894 8.01526
RightShoulder 7.45443e-017 -2.42657e-020 1.96277e-018
RightArm -25.5944 -8.69374 67.1211
RightForeArm 30.0088 2.21818 4.33894
RightHand -1.49312 9.88625 -11.6775
LeftUpLeg -21.6517 3.68567 5.61748
LeftLeg 5.09311 4.34901 1.57671
LeftFoot 6.40728 -0.638049 3.83126
LeftToes 3.91355e-005 3.11907e-005 -4.10385e-006
492
root -27.3343 38.603 5.90254 -173.164 52.4901 -174.935
RightUpLeg 0.925179 0.0834082 3.10051
RightLeg 10.3852 -20.2724 -4.45625
RightFoot -12.3122 -0.0147993 8.05562
RightToes -0.000541893 -0.000659172 -0.000493268
Spine 0.916339 1.17791 2.78482
Spine1 1.85275 2.33599 6.26075
HEad 24.717 5.56029 -12.5491
LeftShoulder1 -3.88251e-019 -0 -3.92111e-022
LeftArm -36.2279 8.00056 -85.7763
LeftForeArm 33.8799 2.02497 0.227052
LeftHand -0.651117 -4.71707 7.76733
RightShoulder 7.45443e-017 -2.42657e-020 1.96277e-018
RightArm -25.6189 -9.14901 67.3171
RightForeArm 29.4744 2.97485 4.96981
RightHand -1.44333 9.63757 -11.4813
LeftUpLeg -22.5153 4.23251 6.42209
LeftLeg -0.463706 1.20813 1.85367
LeftFoot 4.43706 -0.264298 1.64937
LeftToes 3.91355e-005 3.11907e-005 -4.10385e-006
493
root -26.7622 38.4595 4.97628 -172.417 51.2002 -174.324
RightUpLeg 2.05684 -0.38688 2.92389
RightLeg 11.2884 -20.6401 -4.68992
RightFoot -13.0798 0.0632091 9.95819
RightToes -0.000541893 -0.000659172 -0.000493268
Spine 0.634061 1.16361 2.98592
Spine1 1.27775 2.33056 6.72224
HEad 24.727 5.49417 -12.5166
LeftShoulder1 -3.88251e-019 -0 -3.92111e-022
LeftArm -37.2107 9.24703 -85.6525
LeftForeArm 32.8327 1.95432 1.42496
LeftHand -0.64856 -4.48026 7.9098
RightShoulder 7.45443e-017 -2.42657e-020 1.96277e-018
RightArm -25.6986 -9.72419 67.4633
RightForeArm 28.3463 3.98463 5.51544
RightHand -1.46419 9.7337 -11.57
LeftUpLeg -23.2248 4.28826 6.58685
LeftLeg -1.57164 3.22362 1.91325
LeftFoot 0.927449 -0.08073 0.732235
LeftToes 3.91355e-005 3.11907e-005 -4.10385e-006
494
root -26.2015 38.4391 3.86222 -173.227 49.7974 -174.899
RightUpLeg 4.57678 -1.37097 1.57021
RightLeg 10.993 -20.2085 -4.29905
RightFoot -13.0629 0.10313 12.6863
RightToes -0.000541893 -0.000659172 -0.000493268
Spine 0.61184 1.09796 2.97044
Spine1 1.23369 2.16617 6.56739
HEad 24.7888 5.00751 -12.3205
LeftShoulder1 -3.88251e-019 -0 -3.92111e-022
LeftArm -38.0115 10.0032 -85.5255
LeftForeArm 32.8812 1.88402 2.84332
LeftHand -0.639877 -4.1201 8.08245
RightShoulder 7.45443e-017 -2.42657e-020 1.96277e-018
RightArm -25.8219 -10.8319 67.5509
RightForeArm 26.249 5.3899 6.0693
RightHand -1.54362 10.0942 -11.9024
LeftUpLeg -22.1203 3.54239 5.58906
LeftLeg -1.28376 7.45587 1.83317
LeftFoot 3.17207 -0.154071 1.04619
LeftToes 3.91355e-005 3.11907e-005 -4.10385e-006
495
root -25.6336 38.483 2.55442 -174.562 49.1641 -175.955
RightUpLeg 7.2082 -2.81878 -0.821769
RightLeg 11.0916 -18.682 -3.79446
RightFoot -11.9877 0.005118230002 15.3326
RightToes -0.000541893 -0.000659172 -0.000493268
Spine 0.594035 1.25565 2.72173
Spine1 1.19748 2.45788 6.06978
HEad 25.3567 4.25449 -11.7954
LeftShoulder1 -3.88251e-019 -0 -3.92111e-022
LeftArm -38.5368 11.2538 -85.4273
LeftForeArm 33.6481 1.84458 3.66857
LeftHand -0.597121 -3.6474 7.92708
RightShoulder 7.45443e-017 -2.42657e-020 1.96277e-018
RightArm -26.0248 -12.4503 67.4761
RightForeArm 24.5528 6.84076 6.58449
RightHand -1.5713 10.4096 -11.8784
LeftUpLeg -20.2026 2.69883 4.24419
LeftLeg -0.638791 8.66949 1.64239
LeftFoot 9.08055 -0.205079 0.830888
LeftToes 3.91355e-005 3.11907e-005 -4.10385e-006
496
root -25.0664 38.5119 1.075 -176.215 48.9066 -177.634
RightUpLeg 9.00046 -5.33863 -4.52944
RightLeg 12.7949 -15.1763 -3.45726
RightFoot -10.3203 -0.244131 19.1593
RightToes -0.000541893 -0.000659172 -0.000493268
Spine 0.347686 1.37854 2.30046
Spine1 0.695055 2.67175 5.25074
HEad 26.6841 3.59182 -10.8906
LeftShoulder1 -3.88251e-019 -0 -3.92111e-022
LeftArm -39.044 13.648 -85.2555
LeftForeArm 33.6368 1.85373 3.44001
LeftHand -0.552813 -3.34644 7.5937
RightShoulder 7.45443e-017 -2.42657e-020 1.96277e-018
RightArm -26.4265 -14.1634 67.4258
RightForeArm 24.1076 7.6949 6.76744
RightHand -1.55952 10.631 -11.6385
LeftUpLeg -19.0355 1.69641 2.46351
LeftLeg 1.71023 7.7299 1.30584
LeftFoot 11.4726 -0.288765 1.0894
LeftToes 3.91355e-005 3.11907e-005 -4.10385e-006
